<svg width="688" height="702" viewBox="0 0 688 702" fill="none" xmlns="http://www.w3.org/2000/svg">
<g clip-path="url(#clip0_1_2)">
<path d="M370.839 -137.865C180.41 -149.931 -21.2976 2.80387 -98.348 80.6796L-106 225.478C-12.1594 158.336 212.77 26.0219 361.762 33.8955C510.754 41.7692 738.501 171.969 833.75 236.085L842.061 78.8047C764.332 11.6091 561.267 -125.799 370.839 -137.865Z" fill="#FFE6E6" stroke="#FFE5E5"/>
<path d="M360.839 -60.8648C170.41 -72.931 -31.2976 79.8039 -108.348 157.68L-116 302.478C-22.1594 235.336 202.77 103.022 351.762 110.896C500.754 118.769 728.501 248.969 823.75 313.085L832.061 155.805C754.332 88.6091 551.267 -48.7986 360.839 -60.8648Z" fill="#FFD4D4" stroke="#FFD4D4"/>
<path d="M360.839 30.1352C170.41 18.069 -31.2976 170.804 -108.348 248.68L-116 393.478C-22.1594 326.336 202.77 194.022 351.762 201.896C500.754 209.769 728.501 339.969 823.75 404.085L832.061 246.805C754.332 179.609 551.267 42.2014 360.839 30.1352Z" fill="#FFBABA" stroke="#FFBABA"/>
<path d="M360.839 107.135C170.41 95.069 -31.2976 247.804 -108.348 325.68L-116 470.478C-22.1594 403.336 202.77 271.022 351.762 278.896C500.754 286.769 728.501 416.969 823.75 481.085L832.061 323.805C754.332 256.609 551.267 119.201 360.839 107.135Z" fill="#FF9999" stroke="#FF9999"/>
<path d="M360.839 183.135C170.41 171.069 -31.2976 323.804 -108.348 401.68L-116 546.478C-22.1594 479.336 202.77 347.022 351.762 354.896C500.754 362.769 728.501 492.969 823.75 557.085L832.061 399.805C754.332 332.609 551.267 195.201 360.839 183.135Z" fill="#FF7A7A" stroke="#FF7A7A"/>
<path d="M360.839 269.135C170.41 257.069 -31.2976 409.804 -108.348 487.68L-116 632.478C-22.1594 565.336 202.77 433.022 351.762 440.896C500.754 448.769 728.501 578.969 823.75 643.085L832.061 485.805C754.332 418.609 551.267 281.201 360.839 269.135Z" fill="#FF5151" stroke="#FF5151"/>
<path d="M360.839 352.135C170.41 340.069 -31.2976 492.804 -108.348 570.68L-116 715.478C-22.1594 648.336 202.77 516.022 351.762 523.896C500.754 531.769 728.501 661.969 823.75 726.085L832.061 568.805C754.332 501.609 551.267 364.201 360.839 352.135Z" fill="#EA3838" stroke="#EA3838"/>
<path d="M360.839 438.135C170.41 426.069 -31.2976 578.804 -108.348 656.68L-116 801.478C-22.1594 734.336 202.77 602.022 351.762 609.896C500.754 617.769 728.501 747.969 823.75 812.085L832.061 654.805C754.332 587.609 551.267 450.201 360.839 438.135Z" fill="#D82F2F" stroke="#D82F2F"/>
<path d="M360.839 544.135C170.41 532.069 -31.2976 684.804 -108.348 762.68L-116 907.478C-22.1594 840.336 202.77 708.022 351.762 715.896C500.754 723.769 728.501 853.969 823.75 918.085L832.061 760.805C754.332 693.609 551.267 556.201 360.839 544.135Z" fill="#C61D1D" stroke="#C61D1D"/>
<path d="M360.839 637.135C170.41 625.069 -31.2976 777.804 -108.348 855.68L-116 1000.48C-22.1594 933.336 202.77 801.022 351.762 808.896C500.754 816.769 728.501 946.969 823.75 1011.09L832.061 853.805C754.332 786.609 551.267 649.201 360.839 637.135Z" fill="#AC0A0A" stroke="#AC0A0A"/>
</g>
<defs>
<clipPath id="clip0_1_2">
<rect width="688" height="702" fill="white"/>
</clipPath>
</defs>
</svg>
