<svg width="688" height="1036" viewBox="0 0 688 1036" fill="none" xmlns="http://www.w3.org/2000/svg">
<g clip-path="url(#clip0_1_2)">
<path d="M370.839 24.1352C180.41 12.069 -21.2976 164.804 -98.348 242.68L-106 387.478C-12.1594 320.336 212.77 188.022 361.762 195.896C510.754 203.769 738.501 333.969 833.75 398.085L842.061 240.805C764.332 173.609 561.267 36.2014 370.839 24.1352Z" fill="#FFE6E6" stroke="#FFE5E5"/>
<path d="M360.839 101.135C170.41 89.069 -31.2976 241.804 -108.348 319.68L-116 464.478C-22.1594 397.336 202.77 265.022 351.762 272.896C500.754 280.769 728.501 410.969 823.75 475.085L832.061 317.805C754.332 250.609 551.267 113.201 360.839 101.135Z" fill="#FFD4D4" stroke="#FFD4D4"/>
<path d="M360.839 192.135C170.41 180.069 -31.2976 332.804 -108.348 410.68L-116 555.478C-22.1594 488.336 202.77 356.022 351.762 363.896C500.754 371.769 728.501 501.969 823.75 566.085L832.061 408.805C754.332 341.609 551.267 204.201 360.839 192.135Z" fill="#FFBABA" stroke="#FFBABA"/>
<path d="M360.839 269.135C170.41 257.069 -31.2976 409.804 -108.348 487.68L-116 632.478C-22.1594 565.336 202.77 433.022 351.762 440.896C500.754 448.769 728.501 578.969 823.75 643.085L832.061 485.805C754.332 418.609 551.267 281.201 360.839 269.135Z" fill="#FF9999" stroke="#FF9999"/>
<path d="M360.839 345.135C170.41 333.069 -31.2976 485.804 -108.348 563.68L-116 708.478C-22.1594 641.336 202.77 509.022 351.762 516.896C500.754 524.769 728.501 654.969 823.75 719.085L832.061 561.805C754.332 494.609 551.267 357.201 360.839 345.135Z" fill="#FF7A7A" stroke="#FF7A7A"/>
<path d="M360.839 431.135C170.41 419.069 -31.2976 571.804 -108.348 649.68L-116 794.478C-22.1594 727.336 202.77 595.022 351.762 602.896C500.754 610.769 728.501 740.969 823.75 805.085L832.061 647.805C754.332 580.609 551.267 443.201 360.839 431.135Z" fill="#EB4646" stroke="#EB4646"/>
<path d="M360.839 514.135C170.41 502.069 -31.2976 654.804 -108.348 732.68L-116 877.478C-22.1594 810.336 202.77 678.022 351.762 685.896C500.754 693.769 728.501 823.969 823.75 888.085L832.061 730.805C754.332 663.609 551.267 526.201 360.839 514.135Z" fill="#D73737" stroke="#D73737"/>
<path d="M360.839 600.135C170.41 588.069 -31.2976 740.804 -108.348 818.68L-116 963.478C-22.1594 896.336 202.77 764.022 351.762 771.896C500.754 779.769 728.501 909.969 823.75 974.085L832.061 816.805C754.332 749.609 551.267 612.201 360.839 600.135Z" fill="#CC2727" stroke="#CC2727"/>
<path d="M360.839 706.135C170.41 694.069 -31.2976 846.804 -108.348 924.68L-116 1069.48C-22.1594 1002.34 202.77 870.022 351.762 877.896C500.754 885.769 728.501 1015.97 823.75 1080.09L832.061 922.805C754.332 855.609 551.267 718.201 360.839 706.135Z" fill="#B71515" stroke="#B71515"/>
</g>
<defs>
<clipPath id="clip0_1_2">
<rect width="688" height="1036" fill="white"/>
</clipPath>
</defs>
</svg>
